<?xml version="1.0" encoding="UTF-8" standalone="no"?> <svg width="101" height="101" viewBox="0 0 101 101" fill="none" xmlns="http://www.w3.org/2000/svg">
<path d="M49.106 50.437C36.939 50.437 27.04 60.335 27.04 72.502C27.04 73.33 27.711 74.002 28.54 74.002H69.671C70.499 74.002 71.171 73.33 71.171 72.502C71.171 60.335 61.272 50.437 49.106 50.437ZM30.099 71.002C30.867 61.188 39.099 53.437 49.106 53.437C59.113 53.437 67.345 61.188 68.112 71.002H30.099Z" fill="black" stroke="black" stroke-width="2.2"/>
<path d="M48.746 48.4559C55.889 48.4559 61.7 42.6449 61.7 35.5019C61.7 28.3589 55.888 22.5479 48.746 22.5479C41.603 22.5479 35.792 28.3589 35.792 35.5019C35.792 42.6449 41.603 48.4559 48.746 48.4559ZM48.746 25.5479C54.234 25.5479 58.7 30.0129 58.7 35.5019C58.7 40.9899 54.234 45.4559 48.746 45.4559C43.257 45.4559 38.792 40.9908 38.792 35.5019C38.792 30.0129 43.257 25.5479 48.746 25.5479Z" fill="black" stroke="black" stroke-width="2.2"/>
<path d="M19.78 58.7139C22.241 58.7139 24.658 59.3699 26.77 60.6119C27.484 61.0339 28.404 60.7929 28.823 60.0799C29.243 59.3659 29.005 58.4459 28.29 58.0259C25.718 56.5129 22.775 55.7139 19.78 55.7139C10.523 55.7139 2.992 63.2449 2.992 72.5019C2.992 73.3299 3.663 74.0019 4.492 74.0019H23.504C24.333 74.0019 25.004 73.3299 25.004 72.5019C25.004 71.6739 24.333 71.0019 23.504 71.0019H6.073C6.823 64.1019 12.684 58.7139 19.78 58.7139Z" fill="black" stroke="black" stroke-width="2.2"/>
<path d="M19.514 53.319C25.035 53.319 29.528 48.827 29.528 43.305C29.528 37.783 25.036 33.291 19.514 33.291C13.992 33.291 9.5 37.783 9.5 43.305C9.5 48.826 13.992 53.319 19.514 53.319ZM19.514 36.291C23.381 36.291 26.528 39.437 26.528 43.305C26.528 47.172 23.382 50.319 19.514 50.319C15.646 50.319 12.5 47.173 12.5 43.305C12.5 39.437 15.646 36.291 19.514 36.291Z" fill="black" stroke="black" stroke-width="2.2"/>
<path d="M78.553 55.7139C75.559 55.7139 72.616 56.5139 70.043 58.0259C69.328 58.4459 69.09 59.3649 69.51 60.0789C69.93 60.7949 70.852 61.0319 71.563 60.6119C73.676 59.3699 76.093 58.7139 78.553 58.7139C85.649 58.7139 91.51 64.1019 92.26 71.0019H74.832C74.004 71.0019 73.332 71.6739 73.332 72.5019C73.332 73.3299 74.004 74.0019 74.832 74.0019H93.841C94.669 74.0019 95.341 73.3299 95.341 72.5019C95.341 63.2449 87.81 55.7139 78.553 55.7139Z" fill="black" stroke="black" stroke-width="2.2"/>
<path d="M78.82 53.319C84.341 53.319 88.834 48.827 88.834 43.305C88.834 37.783 84.342 33.291 78.82 33.291C73.298 33.291 68.805 37.783 68.805 43.305C68.806 48.826 73.298 53.319 78.82 53.319ZM78.82 36.291C82.687 36.291 85.834 39.437 85.834 43.305C85.834 47.172 82.688 50.319 78.82 50.319C74.952 50.319 71.805 47.173 71.805 43.305C71.806 39.437 74.952 36.291 78.82 36.291Z" fill="black" stroke="black" stroke-width="2.2"/>
</svg>
